<svg width="216" height="247" viewBox="0 0 216 247" fill="none" xmlns="http://www.w3.org/2000/svg">
<path d="M11.127 6.00104V1.37804H0.741966V46H5.36497V25.498H9.98797V20.942H5.36497V6.00104H11.127Z" fill="black"/>
<path d="M26.5626 38.898V8.48004C26.5626 3.99104 23.5476 0.842041 19.9296 0.842041C16.3116 0.842041 13.2966 3.99104 13.2966 8.48004V38.898C13.2966 43.454 16.3116 46.536 19.9296 46.536C23.5476 46.536 26.5626 43.454 26.5626 38.898ZM21.8726 39.501C21.8726 40.774 21.1356 41.645 19.9296 41.645C18.6566 41.645 17.9866 40.774 17.9866 39.501V7.87704C17.9866 6.67104 18.6566 5.73304 19.9296 5.73304C21.1356 5.73304 21.8726 6.67104 21.8726 7.87704V39.501Z" fill="black"/>
<path d="M43.7287 46V1.37804H39.6417V30.389L38.6367 23.89L34.3487 1.37804H29.6587V46H33.7457V17.056L34.8847 23.488L40.0437 46H43.7287Z" fill="black"/>
<path d="M60.0642 38.094V9.28404C60.0642 3.45504 57.5182 1.37804 53.9672 1.37804H47.0662V46H53.9672C57.5182 46 60.0642 43.923 60.0642 38.094ZM55.4412 38.496C55.4412 40.506 54.9722 41.31 53.6992 41.31H51.7562V6.13504H53.6992C54.9722 6.13504 55.4412 6.93904 55.4412 8.94904V38.496Z" fill="black"/>
<path d="M75.6893 46L71.2673 1.37804H66.2423L61.7533 46H65.9073L66.6443 37.424H70.3963L70.8653 46H75.6893ZM70.0613 32.6H67.0463L68.7883 12.433L70.0613 32.6Z" fill="black"/>
<path d="M88.0304 6.20204V1.37804H75.3004V6.20204H79.4544V46H84.0774V6.20204H88.0304Z" fill="black"/>
<path d="M94.8744 46V1.37804H90.1843V46H94.8744Z" fill="black"/>
<path d="M111.294 38.898V8.48004C111.294 3.99104 108.279 0.842041 104.661 0.842041C101.043 0.842041 98.0281 3.99104 98.0281 8.48004V38.898C98.0281 43.454 101.043 46.536 104.661 46.536C108.279 46.536 111.294 43.454 111.294 38.898ZM106.604 39.501C106.604 40.774 105.867 41.645 104.661 41.645C103.388 41.645 102.718 40.774 102.718 39.501V7.87704C102.718 6.67104 103.388 5.73304 104.661 5.73304C105.867 5.73304 106.604 6.67104 106.604 7.87704V39.501Z" fill="black"/>
<path d="M128.46 46V1.37804H124.373V30.389L123.368 23.89L119.08 1.37804H114.39V46H118.477V17.056L119.616 23.488L124.775 46H128.46Z" fill="black"/>
<path d="M156.777 46V1.37804H150.613L148.268 23.89L147.464 33.203L146.66 23.89L144.248 1.37804H137.883V46H141.903V11.361L142.506 19.937L145.253 46H148.871L151.752 19.937L152.355 11.361V46H156.777Z" fill="black"/>
<path d="M171.047 46V41.377H164.883V25.364H169.238V20.741H164.883V6.00104H171.047V1.37804H160.26V46H171.047Z" fill="black"/>
<path d="M186.403 1.37804H181.981L179.167 21.076L176.353 1.37804H171.864L176.554 28.513V46H181.177V28.513L186.403 1.37804Z" fill="black"/>
<path d="M198.92 46V41.377H192.756V25.364H197.111V20.741H192.756V6.00104H198.92V1.37804H188.133V46H198.92Z" fill="black"/>
<path d="M215.08 46.134V44.861C214.544 43.722 214.343 42.315 214.343 40.305V29.518C214.343 27.106 213.338 25.498 211.596 24.426C213.338 23.354 214.209 21.679 214.209 19.334V8.41304C214.209 2.71804 210.926 1.37804 208.313 1.37804H201.546V46H206.236V26.57H208.045C209.117 26.57 209.787 27.508 209.787 28.848V40.64C209.787 43.454 210.524 46.134 212.065 46.134H215.08ZM209.586 19.669C209.586 21.277 208.983 22.014 207.978 22.014H206.236V6.13504H208.179C209.05 6.13504 209.586 6.73804 209.586 8.27904V19.669Z" fill="black"/>
<path d="M13.405 70.339V58.413C13.405 52.718 10.055 51.378 7.44197 51.378H0.741966V96H5.36497V77.374H7.44197C10.055 77.374 13.405 76.034 13.405 70.339ZM8.78197 70.808C8.78197 72.282 8.24597 72.952 7.37497 72.952H5.36497V56.135H7.37497C8.24597 56.135 8.78197 56.738 8.78197 58.279V70.808Z" fill="#808080"/>
<path d="M28.9181 88.898V58.48C28.9181 53.991 25.9031 50.842 22.2851 50.842C18.6671 50.842 15.6521 53.991 15.6521 58.48V88.898C15.6521 93.454 18.6671 96.536 22.2851 96.536C25.9031 96.536 28.9181 93.454 28.9181 88.898ZM24.2281 89.501C24.2281 90.774 23.4911 91.645 22.2851 91.645C21.0121 91.645 20.3421 90.774 20.3421 89.501V57.877C20.3421 56.671 21.0121 55.733 22.2851 55.733C23.4911 55.733 24.2281 56.671 24.2281 57.877V89.501Z" fill="#808080"/>
<path d="M44.8112 88.898V51.378H40.3892V89.3C40.3892 90.841 39.7192 91.645 38.4462 91.645C37.2402 91.645 36.5702 90.841 36.5702 89.3V51.378H31.9472V88.898C31.9472 93.454 34.7612 96.536 38.3792 96.536C41.9972 96.536 44.8112 93.454 44.8112 88.898Z" fill="#808080"/>
<path d="M61.6471 96.134V94.861C61.1111 93.722 60.9101 92.315 60.9101 90.305V79.518C60.9101 77.106 59.9051 75.498 58.1631 74.426C59.9051 73.354 60.7761 71.679 60.7761 69.334V58.413C60.7761 52.718 57.4931 51.378 54.8801 51.378H48.1131V96H52.8031V76.57H54.6121C55.6841 76.57 56.3541 77.508 56.3541 78.848V90.64C56.3541 93.454 57.0911 96.134 58.6321 96.134H61.6471ZM56.1531 69.669C56.1531 71.277 55.5501 72.014 54.5451 72.014H52.8031V56.135H54.7461C55.6171 56.135 56.1531 56.738 56.1531 58.279V69.669Z" fill="#808080"/>
<path d="M80.6819 96V91.377H74.7859V51.378H70.1629V96H80.6819Z" fill="#808080"/>
<path d="M93.7741 96V91.377H87.6101V75.364H91.9651V70.741H87.6101V56.001H93.7741V51.378H82.9871V96H93.7741Z" fill="#808080"/>
<path d="M13.74 138.094V109.284C13.74 103.455 11.194 101.378 7.64297 101.378H0.741966V146H7.64297C11.194 146 13.74 143.923 13.74 138.094ZM9.11697 138.496C9.11697 140.506 8.64797 141.31 7.37497 141.31H5.43197V106.135H7.37497C8.64797 106.135 9.11697 106.939 9.11697 108.949V138.496Z" fill="#808080"/>
<path d="M27.6901 146V141.377H21.5261V125.364H25.8811V120.741H21.5261V106.001H27.6901V101.378H16.9031V146H27.6901Z" fill="#808080"/>
<path d="M42.9122 101.378H38.6242L35.8772 133.404L33.6662 101.378H28.9092L33.4652 146H38.2222L42.9122 101.378Z" fill="#808080"/>
<path d="M55.7594 146V141.377H49.5954V125.364H53.9504V120.741H49.5954V106.001H55.7594V101.378H44.9724V146H55.7594Z" fill="#808080"/>
<path d="M68.9045 146V141.377H63.0085V101.378H58.3855V146H68.9045Z" fill="#808080"/>
<path d="M83.6173 138.898V108.48C83.6173 103.991 80.6023 100.842 76.9843 100.842C73.3663 100.842 70.3513 103.991 70.3513 108.48V138.898C70.3513 143.454 73.3663 146.536 76.9843 146.536C80.6023 146.536 83.6173 143.454 83.6173 138.898ZM78.9273 139.501C78.9273 140.774 78.1903 141.645 76.9843 141.645C75.7113 141.645 75.0413 140.774 75.0413 139.501V107.877C75.0413 106.671 75.7113 105.733 76.9843 105.733C78.1903 105.733 78.9273 106.671 78.9273 107.877V139.501Z" fill="#808080"/>
<path d="M99.5104 120.339V108.413C99.5104 102.718 96.1604 101.378 93.5474 101.378H86.8474V146H91.4704V127.374H93.5474C96.1604 127.374 99.5104 126.034 99.5104 120.339ZM94.8874 120.808C94.8874 122.282 94.3514 122.952 93.4804 122.952H91.4704V106.135H93.4804C94.3514 106.135 94.8874 106.738 94.8874 108.279V120.808Z" fill="#808080"/>
<path d="M114.756 120.339V108.413C114.756 102.718 111.406 101.378 108.793 101.378H102.093V146H106.716V127.374H108.793C111.406 127.374 114.756 126.034 114.756 120.339ZM110.133 120.808C110.133 122.282 109.597 122.952 108.726 122.952H106.716V106.135H108.726C109.597 106.135 110.133 106.738 110.133 108.279V120.808Z" fill="#808080"/>
<path d="M128.125 146V141.377H121.961V125.364H126.316V120.741H121.961V106.001H128.125V101.378H117.338V146H128.125Z" fill="#808080"/>
<path d="M149.645 146V101.378H143.481L141.136 123.89L140.332 133.203L139.528 123.89L137.116 101.378H130.751V146H134.771V111.361L135.374 119.937L138.121 146H141.739L144.62 119.937L145.223 111.361V146H149.645Z" fill="#808080"/>
<path d="M163.915 146V141.377H157.751V125.364H162.106V120.741H157.751V106.001H163.915V101.378H153.128V146H163.915Z" fill="#808080"/>
<path d="M180.477 146V101.378H176.39V130.389L175.385 123.89L171.097 101.378H166.407V146H170.494V117.056L171.633 123.488L176.792 146H180.477Z" fill="#808080"/>
<path d="M195.204 106.202V101.378H182.474V106.202H186.628V146H191.251V106.202H195.204Z" fill="#808080"/>
<path d="M13.07 188.898V180.322H9.11697V189.367C9.11697 190.64 8.44697 191.645 7.10697 191.645C5.69997 191.645 5.02997 190.64 5.02997 189.367V158.011C5.02997 156.738 5.69997 155.733 7.10697 155.733C8.44697 155.733 9.11697 156.738 9.11697 158.011V166.989H13.07V158.48C13.07 153.991 10.725 150.842 6.97297 150.842C3.35497 150.842 0.339966 153.991 0.339966 158.48V188.898C0.339966 193.454 3.35497 196.536 6.97297 196.536C10.725 196.536 13.07 193.454 13.07 188.898Z" fill="#808080"/>
<path d="M28.5192 188.898V151.378H24.0972V189.3C24.0972 190.841 23.4272 191.645 22.1542 191.645C20.9482 191.645 20.2782 190.841 20.2782 189.3V151.378H15.6552V188.898C15.6552 193.454 18.4692 196.536 22.0872 196.536C25.7052 196.536 28.5192 193.454 28.5192 188.898Z" fill="#808080"/>
<path d="M42.3401 196V191.377H36.4441V151.378H31.8211V196H42.3401Z" fill="#808080"/>
<path d="M53.7452 156.202V151.378H41.0152V156.202H45.1692V196H49.7922V156.202H53.7452Z" fill="#808080"/>
<path d="M68.5622 188.898V151.378H64.1402V189.3C64.1402 190.841 63.4702 191.645 62.1972 191.645C60.9912 191.645 60.3212 190.841 60.3212 189.3V151.378H55.6982V188.898C55.6982 193.454 58.5122 196.536 62.1302 196.536C65.7482 196.536 68.5622 193.454 68.5622 188.898Z" fill="#808080"/>
<path d="M85.398 196.134V194.861C84.862 193.722 84.661 192.315 84.661 190.305V179.518C84.661 177.106 83.656 175.498 81.914 174.426C83.656 173.354 84.527 171.679 84.527 169.334V158.413C84.527 152.718 81.244 151.378 78.631 151.378H71.864V196H76.554V176.57H78.363C79.435 176.57 80.105 177.508 80.105 178.848V190.64C80.105 193.454 80.842 196.134 82.383 196.134H85.398ZM79.904 169.669C79.904 171.277 79.301 172.014 78.296 172.014H76.554V156.135H78.497C79.368 156.135 79.904 156.738 79.904 158.279V169.669Z" fill="#808080"/>
<path d="M98.6159 196V191.377H92.4519V175.364H96.8069V170.741H92.4519V156.001H98.6159V151.378H87.8289V196H98.6159Z" fill="#808080"/>
<path d="M111.761 196V191.377H105.865V151.378H101.242V196H111.761Z" fill="#808080"/>
<path d="M11.529 246V241.377H5.36497V225.364H9.71997V220.741H5.36497V206.001H11.529V201.378H0.741966V246H11.529Z" fill="#808080"/>
<path d="M25.5451 206.202V201.378H12.8151V206.202H16.9691V246H21.5921V206.202H25.5451Z" fill="#808080"/>
<path d="M46.246 246L41.824 201.378H36.799L32.31 246H36.464L37.201 237.424H40.953L41.422 246H46.246ZM40.618 232.6H37.603L39.345 212.433L40.618 232.6Z" fill="#808080"/>
<path d="M61.8433 246.134V244.861C61.3073 243.722 61.1063 242.315 61.1063 240.305V229.518C61.1063 227.106 60.1013 225.498 58.3593 224.426C60.1013 223.354 60.9723 221.679 60.9723 219.334V208.413C60.9723 202.718 57.6893 201.378 55.0763 201.378H48.3093V246H52.9993V226.57H54.8083C55.8804 226.57 56.5504 227.508 56.5504 228.848V240.64C56.5504 243.454 57.2873 246.134 58.8284 246.134H61.8433ZM56.3493 219.669C56.3493 221.277 55.7463 222.014 54.7413 222.014H52.9993V206.135H54.9423C55.8133 206.135 56.3493 206.738 56.3493 208.279V219.669Z" fill="#808080"/>
<path d="M75.5333 206.202V201.378H62.8033V206.202H66.9573V246H71.5803V206.202H75.5333Z" fill="#808080"/>
<path d="M82.3773 246V201.378H77.6873V246H82.3773Z" fill="#808080"/>
<path d="M98.261 237.96C98.261 233.27 96.117 227.776 93.638 222.215C91.092 216.386 89.752 213.773 89.752 208.212C89.752 206.336 90.69 205.465 92.03 205.465C93.236 205.465 93.906 206.403 93.906 208.413V214.979H98.06V208.748C98.06 203.656 95.715 200.842 92.03 200.842C87.273 200.842 85.196 204.527 85.196 209.686C85.196 214.309 88.077 221.21 90.154 225.699C92.499 230.858 93.772 234.677 93.772 239.166C93.772 241.109 93.035 242.248 91.427 242.248C89.953 242.248 89.216 240.975 89.216 239.166V232.935H84.995V238.63C84.995 243.588 87.474 246.536 91.628 246.536C94.308 246.536 98.261 244.928 98.261 237.96Z" fill="#808080"/>
<path d="M112.305 206.202V201.378H99.5748V206.202H103.729V246H108.352V206.202H112.305Z" fill="#808080"/>
<path d="M119.149 246V201.378H114.459V246H119.149Z" fill="#808080"/>
<path d="M137.109 246V242.985C136.037 242.985 135.233 242.717 134.898 242.315C135.3 241.444 135.568 240.238 135.568 238.898V208.48C135.568 203.991 132.553 200.842 128.935 200.842C125.317 200.842 122.302 203.991 122.302 208.48V238.898C122.302 243.454 125.317 246.536 128.935 246.536C130.275 246.536 131.481 246.201 132.553 245.464C133.089 246.134 133.893 246.536 134.965 246.536C135.903 246.536 136.573 246.335 137.109 246ZM130.878 237.625L128.801 239.97L130.141 241.243C129.806 241.578 129.404 241.645 128.935 241.645C127.662 241.645 126.992 240.774 126.992 239.501V207.877C126.992 206.671 127.662 205.733 128.935 205.733C130.141 205.733 130.878 206.671 130.878 207.877V237.625Z" fill="#808080"/>
<path d="M151.462 238.898V201.378H147.04V239.3C147.04 240.841 146.37 241.645 145.097 241.645C143.891 241.645 143.221 240.841 143.221 239.3V201.378H138.598V238.898C138.598 243.454 141.412 246.536 145.03 246.536C148.648 246.536 151.462 243.454 151.462 238.898Z" fill="#808080"/>
<path d="M165.55 246V241.377H159.386V225.364H163.741V220.741H159.386V206.001H165.55V201.378H154.763V246H165.55Z" fill="#808080"/>
</svg>
