<svg width="102" height="53" viewBox="0 0 102 53" fill="none" xmlns="http://www.w3.org/2000/svg">
<g clip-path="url(#clip0_0_3)">
<path d="M1.80001 1.85V7.2H3.46001V8.83H1.80001V16.17H0.140015V0.190002H3.86001V1.85H1.80001Z" fill="black"/>
<path d="M7.01 16.37C5.71001 16.37 4.63 15.27 4.63 13.63V2.74C4.63 1.13 5.71001 0 7.01 0C8.31 0 9.39001 1.13 9.39001 2.74V13.64C9.39001 15.27 8.31 16.38 7.01 16.38V16.37ZM7.71 2.52C7.71 2.09 7.45001 1.75 7.01 1.75C6.55 1.75 6.31 2.09 6.31 2.52V13.85C6.31 14.31 6.55 14.62 7.01 14.62C7.44001 14.62 7.71 14.31 7.71 13.85V2.52Z" fill="black"/>
<path d="M14.21 16.18L12.36 8.12L11.95 5.82V16.19H10.49V0.190002H12.17L13.71 8.25L14.07 10.58V0.190002H15.53V16.18H14.21Z" fill="black"/>
<path d="M19.2 16.18H16.73V0.190002H19.2C20.47 0.190002 21.38 0.930002 21.38 3.02V13.34C21.38 15.43 20.47 16.17 19.2 16.17V16.18ZM19.73 2.91C19.73 2.19 19.56 1.9 19.11 1.9H18.41V14.5H19.11C19.57 14.5 19.73 14.21 19.73 13.49V2.9V2.91Z" fill="black"/>
<path d="M25.25 16.18L25.08 13.11H23.74L23.48 16.18H21.99L23.59 0.190002H25.39L26.97 16.18H25.24H25.25ZM24.51 4.16L23.89 11.38H24.97L24.51 4.16Z" fill="black"/>
<path d="M29.98 1.92V16.18H28.32V1.92H26.83V0.190002H31.39V1.92H29.97H29.98Z" fill="black"/>
<path d="M32.16 16.18V0.190002H33.84V16.18H32.16Z" fill="black"/>
<path d="M37.34 16.37C36.04 16.37 34.96 15.27 34.96 13.63V2.74C34.96 1.13 36.04 0 37.34 0C38.64 0 39.72 1.13 39.72 2.74V13.64C39.72 15.27 38.64 16.38 37.34 16.38V16.37ZM38.04 2.52C38.04 2.09 37.78 1.75 37.34 1.75C36.88 1.75 36.64 2.09 36.64 2.52V13.85C36.64 14.31 36.88 14.62 37.34 14.62C37.77 14.62 38.04 14.31 38.04 13.85V2.52Z" fill="black"/>
<path d="M44.54 16.18L42.69 8.12L42.28 5.82V16.19H40.82V0.190002H42.5L44.04 8.25L44.4 10.58V0.190002H45.86V16.18H44.54Z" fill="black"/>
<path d="M54.43 16.18V3.77L54.21 6.84L53.18 16.18H51.88L50.9 6.84L50.68 3.77V16.18H49.24V0.190002H51.52L52.38 8.25L52.67 11.59L52.96 8.25L53.8 0.190002H56.01V16.18H54.43Z" fill="black"/>
<path d="M57.26 16.18V0.190002H61.12V1.85H58.91V7.13H60.47V8.79H58.91V14.53H61.12V16.19H57.26V16.18Z" fill="black"/>
<path d="M64.75 9.91V16.17H63.09V9.91L61.41 0.190002H63.02L64.03 7.25L65.04 0.190002H66.62L64.75 9.91Z" fill="black"/>
<path d="M67.25 16.18V0.190002H71.11V1.85H68.9V7.13H70.46V8.79H68.9V14.53H71.11V16.19H67.25V16.18Z" fill="black"/>
<path d="M75.81 16.23C75.26 16.23 74.99 15.27 74.99 14.26V10.04C74.99 9.56 74.75 9.22 74.37 9.22H73.72V16.18H72.04V0.190002H74.46C75.4 0.190002 76.57 0.670002 76.57 2.71V6.62C76.57 7.46 76.26 8.06 75.63 8.44C76.25 8.82 76.61 9.4 76.61 10.26V14.12C76.61 14.84 76.68 15.34 76.87 15.75V16.21H75.79L75.81 16.23ZM74.92 2.67C74.92 2.12 74.73 1.9 74.42 1.9H73.72V7.59H74.34C74.7 7.59 74.92 7.33 74.92 6.75V2.66V2.67Z" fill="black"/>
<path d="M82.34 9.5H81.6V16.17H79.94V0.190002H82.34C83.28 0.190002 84.48 0.670002 84.48 2.71V6.98C84.48 9.02 83.28 9.5 82.34 9.5ZM82.82 2.66C82.82 2.11 82.63 1.89 82.32 1.89H81.6V7.91H82.32C82.63 7.91 82.82 7.67 82.82 7.14V2.66Z" fill="#CCCCCC"/>
<path d="M87.67 16.37C86.37 16.37 85.29 15.27 85.29 13.63V2.74C85.29 1.13 86.37 0 87.67 0C88.97 0 90.05 1.13 90.05 2.74V13.64C90.05 15.27 88.97 16.38 87.67 16.38V16.37ZM88.37 2.52C88.37 2.09 88.11 1.75 87.67 1.75C87.21 1.75 86.97 2.09 86.97 2.52V13.85C86.97 14.31 87.21 14.62 87.67 14.62C88.1 14.62 88.37 14.31 88.37 13.85V2.52Z" fill="#CCCCCC"/>
<path d="M93.43 16.37C92.13 16.37 91.13 15.27 91.13 13.63V0.190002H92.79V13.77C92.79 14.32 93.03 14.61 93.46 14.61C93.92 14.61 94.16 14.32 94.16 13.77V0.190002H95.74V13.63C95.74 15.26 94.73 16.37 93.44 16.37H93.43Z" fill="#CCCCCC"/>
<path d="M100.68 16.23C100.13 16.23 99.86 15.27 99.86 14.26V10.04C99.86 9.56 99.62 9.22 99.24 9.22H98.59V16.18H96.91V0.190002H99.33C100.27 0.190002 101.44 0.670002 101.44 2.71V6.62C101.44 7.46 101.13 8.06 100.5 8.44C101.12 8.82 101.48 9.4 101.48 10.26V14.12C101.48 14.84 101.55 15.34 101.74 15.75V16.21H100.66L100.68 16.23ZM99.79 2.67C99.79 2.12 99.6 1.9 99.29 1.9H98.59V7.59H99.21C99.57 7.59 99.79 7.33 99.79 6.75V2.66V2.67Z" fill="#CCCCCC"/>
<path d="M0.140015 34.18V18.19H1.80001V32.52H3.91001V34.18H0.140015Z" fill="#CCCCCC"/>
<path d="M4.73001 34.18V18.19H8.59001V19.85H6.38001V25.13H7.94001V26.79H6.38001V32.53H8.59001V34.19H4.73001V34.18Z" fill="#CCCCCC"/>
<path d="M14.18 34.18H11.71V18.19H14.18C15.45 18.19 16.36 18.93 16.36 21.02V31.34C16.36 33.43 15.45 34.17 14.18 34.17V34.18ZM14.71 20.91C14.71 20.19 14.54 19.9 14.09 19.9H13.39V32.5H14.09C14.55 32.5 14.71 32.21 14.71 31.49V20.91Z" fill="#CCCCCC"/>
<path d="M17.5 34.18V18.19H21.36V19.85H19.15V25.13H20.71V26.79H19.15V32.53H21.36V34.19H17.5V34.18Z" fill="#CCCCCC"/>
<path d="M25.13 34.18H23.43L21.8 18.19H23.5L24.29 29.66L25.27 18.19H26.81L25.13 34.18Z" fill="#CCCCCC"/>
<path d="M27.55 34.18V18.19H31.41V19.85H29.2V25.13H30.76V26.79H29.2V32.53H31.41V34.19H27.55V34.18Z" fill="#CCCCCC"/>
<path d="M32.35 34.18V18.19H34.01V32.52H36.12V34.18H32.35Z" fill="#CCCCCC"/>
<path d="M39 34.37C37.7 34.37 36.62 33.27 36.62 31.63V20.73C36.62 19.12 37.7 17.99 39 17.99C40.3 17.99 41.38 19.12 41.38 20.73V31.63C41.38 33.26 40.3 34.37 39 34.37ZM39.7 20.52C39.7 20.09 39.44 19.75 39 19.75C38.54 19.75 38.3 20.09 38.3 20.52V31.85C38.3 32.31 38.54 32.62 39 32.62C39.43 32.62 39.7 32.31 39.7 31.85V20.52Z" fill="#CCCCCC"/>
<path d="M44.93 27.5H44.19V34.17H42.53V18.18H44.93C45.87 18.18 47.07 18.66 47.07 20.7V24.97C47.07 27.01 45.87 27.49 44.93 27.49V27.5ZM45.41 20.66C45.41 20.11 45.22 19.89 44.91 19.89H44.19V25.91H44.91C45.22 25.91 45.41 25.67 45.41 25.14V20.65V20.66Z" fill="#CCCCCC"/>
<path d="M50.4 27.5H49.66V34.17H48V18.18H50.4C51.34 18.18 52.54 18.66 52.54 20.7V24.97C52.54 27.01 51.34 27.49 50.4 27.49V27.5ZM50.88 20.66C50.88 20.11 50.69 19.89 50.38 19.89H49.66V25.91H50.38C50.69 25.91 50.88 25.67 50.88 25.14V20.65V20.66Z" fill="#CCCCCC"/>
<path d="M53.47 34.18V18.19H57.33V19.85H55.12V25.13H56.68V26.79H55.12V32.53H57.33V34.19H53.47V34.18Z" fill="#CCCCCC"/>
<path d="M63.46 34.18V21.77L63.24 24.84L62.21 34.18H60.91L59.93 24.84L59.71 21.77V34.18H58.27V18.19H60.55L61.41 26.25L61.7 29.59L61.99 26.25L62.83 18.19H65.04V34.18H63.46Z" fill="#CCCCCC"/>
<path d="M66.29 34.18V18.19H70.15V19.85H67.94V25.13H69.5V26.79H67.94V32.53H70.15V34.19H66.29V34.18Z" fill="#CCCCCC"/>
<path d="M74.76 34.18L72.91 26.12L72.5 23.82V34.19H71.04V18.2H72.72L74.26 26.26L74.62 28.59V18.2H76.08V34.19H74.76V34.18Z" fill="#CCCCCC"/>
<path d="M79.94 19.92V34.18H78.28V19.92H76.79V18.19H81.35V19.92H79.93H79.94Z" fill="#CCCCCC"/>
<path d="M2.38 52.37C1.08 52.37 0 51.27 0 49.63V38.73C0 37.12 1.08 35.99 2.38 35.99C3.68 35.99 4.56 37.12 4.56 38.73V41.78H3.14V38.56C3.14 38.1 2.9 37.74 2.42 37.74C1.92 37.74 1.68 38.1 1.68 38.56V49.79C1.68 50.25 1.92 50.61 2.42 50.61C2.92 50.61 3.14 50.25 3.14 49.79V46.55H4.56V49.62C4.56 51.25 3.72 52.36 2.38 52.36V52.37Z" fill="#CCCCCC"/>
<path d="M7.8 52.37C6.5 52.37 5.5 51.27 5.5 49.63V36.19H7.16V49.77C7.16 50.32 7.4 50.61 7.83 50.61C8.29 50.61 8.53 50.32 8.53 49.77V36.19H10.11V49.63C10.11 51.26 9.1 52.37 7.81 52.37H7.8Z" fill="#CCCCCC"/>
<path d="M11.28 52.18V36.19H12.94V50.52H15.05V52.18H11.28Z" fill="#CCCCCC"/>
<path d="M17.71 37.92V52.18H16.05V37.92H14.56V36.19H19.12V37.92H17.7H17.71Z" fill="#CCCCCC"/>
<path d="M22.13 52.37C20.83 52.37 19.83 51.27 19.83 49.63V36.19H21.49V49.77C21.49 50.32 21.73 50.61 22.16 50.61C22.62 50.61 22.86 50.32 22.86 49.77V36.19H24.44V49.63C24.44 51.26 23.43 52.37 22.14 52.37H22.13Z" fill="#CCCCCC"/>
<path d="M29.38 52.23C28.83 52.23 28.56 51.27 28.56 50.26V46.04C28.56 45.56 28.32 45.22 27.94 45.22H27.29V52.18H25.61V36.19H28.03C28.97 36.19 30.14 36.67 30.14 38.71V42.62C30.14 43.46 29.83 44.06 29.2 44.44C29.82 44.82 30.18 45.4 30.18 46.26V50.12C30.18 50.84 30.25 51.34 30.44 51.75V52.21H29.36L29.38 52.23ZM28.49 38.67C28.49 38.12 28.3 37.9 27.99 37.9H27.29V43.59H27.91C28.27 43.59 28.49 43.33 28.49 42.75V38.67Z" fill="#CCCCCC"/>
<path d="M31.32 52.18V36.19H35.18V37.85H32.97V43.13H34.53V44.79H32.97V50.53H35.18V52.19H31.32V52.18Z" fill="#CCCCCC"/>
<path d="M36.12 52.18V36.19H37.78V50.52H39.89V52.18H36.12Z" fill="#CCCCCC"/>
<path d="M42.89 52.18V36.19H46.75V37.85H44.54V43.13H46.1V44.79H44.54V50.53H46.75V52.19H42.89V52.18Z" fill="#CCCCCC"/>
<path d="M50.35 37.92V52.18H48.69V37.92H47.2V36.19H51.76V37.92H50.34H50.35Z" fill="#CCCCCC"/>
<path d="M57.45 52.18L57.28 49.11H55.94L55.68 52.18H54.19L55.8 36.19H57.6L59.18 52.18H57.45ZM56.71 40.16L56.09 47.38H57.17L56.71 40.16Z" fill="#CCCCCC"/>
<path d="M63.69 52.23C63.14 52.23 62.87 51.27 62.87 50.26V46.04C62.87 45.56 62.63 45.22 62.25 45.22H61.6V52.18H59.92V36.19H62.34C63.28 36.19 64.45 36.67 64.45 38.71V42.62C64.45 43.46 64.14 44.06 63.51 44.44C64.13 44.82 64.49 45.4 64.49 46.26V50.12C64.49 50.84 64.56 51.34 64.75 51.75V52.21H63.67L63.69 52.23ZM62.8 38.67C62.8 38.12 62.61 37.9 62.3 37.9H61.6V43.59H62.22C62.58 43.59 62.8 43.33 62.8 42.75V38.67Z" fill="#CCCCCC"/>
<path d="M68.25 37.92V52.18H66.59V37.92H65.1V36.19H69.66V37.92H68.24H68.25Z" fill="#CCCCCC"/>
<path d="M70.44 52.18V36.19H72.12V52.18H70.44Z" fill="#CCCCCC"/>
<path d="M75.43 52.37C73.94 52.37 73.05 51.31 73.05 49.54V47.5H74.56V49.73C74.56 50.38 74.82 50.83 75.35 50.83C75.93 50.83 76.19 50.42 76.19 49.73C76.19 48.12 75.73 46.75 74.89 44.91C74.15 43.3 73.11 40.83 73.11 39.17C73.11 37.32 73.85 36 75.56 36C76.88 36 77.72 37.01 77.72 38.83V41.06H76.23V38.71C76.23 37.99 75.99 37.65 75.56 37.65C75.08 37.65 74.74 37.96 74.74 38.63C74.74 40.62 75.22 41.56 76.13 43.65C77.02 45.64 77.79 47.61 77.79 49.29C77.79 51.79 76.37 52.36 75.41 52.36L75.43 52.37Z" fill="#CCCCCC"/>
<path d="M81.43 37.92V52.18H79.77V37.92H78.28V36.19H82.84V37.92H81.42H81.43Z" fill="#CCCCCC"/>
<path d="M83.61 52.18V36.19H85.29V52.18H83.61Z" fill="#CCCCCC"/>
<path d="M90.96 52.37C90.58 52.37 90.29 52.23 90.1 51.99C89.72 52.25 89.28 52.37 88.8 52.37C87.5 52.37 86.42 51.27 86.42 49.63V38.73C86.42 37.12 87.5 35.99 88.8 35.99C90.1 35.99 91.18 37.12 91.18 38.73V49.63C91.18 50.11 91.08 50.54 90.94 50.85C91.06 50.99 91.35 51.09 91.73 51.09V52.17C91.54 52.29 91.3 52.36 90.96 52.36V52.37ZM89.5 38.52C89.5 38.09 89.24 37.75 88.8 37.75C88.34 37.75 88.1 38.09 88.1 38.52V49.85C88.1 50.31 88.34 50.62 88.8 50.62C88.97 50.62 89.11 50.6 89.23 50.48L88.75 50.02L89.49 49.18V38.52H89.5Z" fill="#CCCCCC"/>
<path d="M94.56 52.37C93.26 52.37 92.26 51.27 92.26 49.63V36.19H93.92V49.77C93.92 50.32 94.16 50.61 94.59 50.61C95.05 50.61 95.29 50.32 95.29 49.77V36.19H96.87V49.63C96.87 51.26 95.86 52.37 94.57 52.37H94.56Z" fill="#CCCCCC"/>
<path d="M98.04 52.18V36.19H101.9V37.85H99.69V43.13H101.25V44.79H99.69V50.53H101.9V52.19H98.04V52.18Z" fill="#CCCCCC"/>
</g>
<defs>
<clipPath id="clip0_0_3">
<rect width="101.9" height="52.37" fill="white"/>
</clipPath>
</defs>
</svg>
