<svg width="223" height="114" viewBox="0 0 223 114" fill="none" xmlns="http://www.w3.org/2000/svg">
<path d="M3.93916 4.02711V15.6731H7.57193V19.2213H3.93916V35.1992H0.306379V0.413596H8.4473V4.02711H3.93916Z" fill="black"/>
<path d="M15.3408 35.6345C12.4959 35.6345 10.1324 33.24 10.1324 29.67V5.96448C10.1324 2.45981 12.4959 0 15.3408 0C18.1858 0 20.5493 2.45981 20.5493 5.96448V29.67C20.5493 33.2183 18.1858 35.6345 15.3408 35.6345ZM16.8727 5.48558C16.8727 4.54955 16.3037 3.80943 15.3408 3.80943C14.3342 3.80943 13.8089 4.54955 13.8089 5.48558V30.1489C13.8089 31.1503 14.3342 31.8251 15.3408 31.8251C16.2818 31.8251 16.8727 31.1503 16.8727 30.1489V5.48558Z" fill="black"/>
<path d="M31.0974 35.2209L27.0489 17.6758L26.1516 12.6691V35.2427H22.9565V0.413596H26.6331L30.0032 17.9588L30.7911 23.0307V0.413596H33.9862V35.2209H31.0974Z" fill="black"/>
<path d="M42.0177 35.2209H36.6123V0.413596H42.0177C44.797 0.413596 46.7884 2.02444 46.7884 6.57399V29.0605C46.7884 33.6101 44.797 35.2209 42.0177 35.2209ZM43.1775 6.33454C43.1775 4.76723 42.8055 4.13596 41.8207 4.13596H40.2888V31.5639H41.8207C42.8274 31.5639 43.1775 30.9326 43.1775 29.3653V6.31277V6.33454Z" fill="black"/>
<path d="M55.2576 35.2209L54.8856 28.5381H51.9531L51.3841 35.2209H48.1234L51.6248 0.413596H55.564L59.0217 35.2209H55.2357H55.2576ZM53.6382 9.05557L52.2814 24.7722H54.6448L53.6382 9.05557Z" fill="black"/>
<path d="M65.6088 4.17949V35.2209H61.9761V4.17949H58.7153V0.413596H68.6945V4.17949H65.5869H65.6088Z" fill="black"/>
<path d="M70.3796 35.2209V0.413596H74.0561V35.2209H70.3796Z" fill="black"/>
<path d="M81.7156 35.6345C78.8707 35.6345 76.5072 33.24 76.5072 29.67V5.96448C76.5072 2.45981 78.8707 0 81.7156 0C84.5606 0 86.924 2.45981 86.924 5.96448V29.67C86.924 33.2183 84.5606 35.6345 81.7156 35.6345ZM83.2475 5.48558C83.2475 4.54955 82.6785 3.80943 81.7156 3.80943C80.7089 3.80943 80.1837 4.54955 80.1837 5.48558V30.1489C80.1837 31.1503 80.7089 31.8251 81.7156 31.8251C82.6566 31.8251 83.2475 31.1503 83.2475 30.1489V5.48558Z" fill="black"/>
<path d="M97.4722 35.2209L93.4237 17.6758L92.5264 12.6691V35.2427H89.3313V0.413596H93.0079L96.378 17.9588L97.1659 23.0307V0.413596H100.361V35.2209H97.4722Z" fill="black"/>
<path d="M119.116 35.2209V8.20661L118.634 14.8894L116.38 35.2209H113.535L111.391 14.8894L110.909 8.20661V35.2209H107.758V0.413596H112.747L114.629 17.9588L115.264 25.2293L115.899 17.9588L117.759 0.413596H122.595V35.2209H119.116Z" fill="black"/>
<path d="M125.309 0.413596H133.756V4.02711H128.92V15.5207H132.334V19.1342H128.92V31.6292H133.756V35.2427H125.309V0.413596Z" fill="black"/>
<path d="M141.7 21.5723V35.1992H138.067V21.5723L134.391 0.413596H137.914L140.125 15.7819L142.335 0.413596H145.793L141.7 21.5723Z" fill="black"/>
<path d="M147.171 0.413596H155.619V4.02711H150.782V15.5207H154.196V19.1342H150.782V31.6292H155.619V35.2427H147.171V0.413596Z" fill="black"/>
<path d="M165.904 35.3298C164.7 35.3298 164.11 33.24 164.11 31.0414V21.8553C164.11 20.8104 163.584 20.0703 162.753 20.0703H161.33V35.2209H157.654V0.413596H162.95C165.007 0.413596 167.567 1.45847 167.567 5.89918V14.4105C167.567 16.2391 166.889 17.5452 165.51 18.3724C166.867 19.1995 167.655 20.4621 167.655 22.3342V30.7367C167.655 32.304 167.808 33.3924 168.224 34.2849V35.2862H165.86L165.904 35.3298ZM163.956 5.81211C163.956 4.61486 163.541 4.13596 162.862 4.13596H161.33V16.5003H162.687C163.475 16.5003 163.956 15.9343 163.956 14.6718V5.79034V5.81211Z" fill="black"/>
<path d="M180.195 20.6798H178.575V35.1992H174.942V0.413596H180.195C182.252 0.413596 184.878 1.45847 184.878 5.89918V15.1942C184.878 19.6349 182.252 20.6798 180.195 20.6798ZM181.245 5.79034C181.245 4.59309 180.829 4.11419 180.151 4.11419H178.575V17.2404H180.151C180.829 17.2404 181.245 16.718 181.245 15.5643V5.79034Z" fill="#CCCCCC"/>
<path d="M191.859 35.6345C189.014 35.6345 186.65 33.24 186.65 29.67V5.96448C186.65 2.45981 189.014 0 191.859 0C194.704 0 197.067 2.45981 197.067 5.96448V29.67C197.067 33.2183 194.704 35.6345 191.859 35.6345ZM193.391 5.48558C193.391 4.54955 192.822 3.80943 191.859 3.80943C190.852 3.80943 190.327 4.54955 190.327 5.48558V30.1489C190.327 31.1503 190.852 31.8251 191.859 31.8251C192.8 31.8251 193.391 31.1503 193.391 30.1489V5.48558Z" fill="#CCCCCC"/>
<path d="M204.464 35.6345C201.619 35.6345 199.431 33.24 199.431 29.67V0.413596H203.063V29.9966C203.063 31.1938 203.589 31.8251 204.53 31.8251C205.536 31.8251 206.062 31.1938 206.062 29.9966V0.413596H209.519V29.67C209.519 33.2183 207.309 35.6345 204.486 35.6345H204.464Z" fill="#CCCCCC"/>
<path d="M220.33 35.3298C219.126 35.3298 218.536 33.24 218.536 31.0414V21.8553C218.536 20.8104 218.01 20.0703 217.179 20.0703H215.756V35.2209H212.08V0.413596H217.376C219.433 0.413596 221.993 1.45847 221.993 5.89918V14.4105C221.993 16.2391 221.315 17.5452 219.936 18.3724C221.293 19.1995 222.081 20.4621 222.081 22.3342V30.7367C222.081 32.304 222.234 33.3924 222.65 34.2849V35.2862H220.286L220.33 35.3298ZM218.382 5.81211C218.382 4.61486 217.967 4.13596 217.288 4.13596H215.756V16.5003H217.113C217.901 16.5003 218.382 15.9343 218.382 14.6718V5.79034V5.81211Z" fill="#CCCCCC"/>
<path d="M0.306379 74.4037V39.5963H3.93916V70.7902H8.55672V74.4037H0.306379Z" fill="#CCCCCC"/>
<path d="M10.3512 39.5963H18.7985V43.2099H13.9621V54.7035H17.3761V58.317H13.9621V70.8119H18.7985V74.4254H10.3512V39.5963Z" fill="#CCCCCC"/>
<path d="M31.0318 74.4037H25.6264V39.5963H31.0318C33.8111 39.5963 35.8026 41.2072 35.8026 45.7567V68.2215C35.8026 72.7711 33.8111 74.3819 31.0318 74.3819V74.4037ZM32.1917 45.5173C32.1917 43.95 31.8196 43.3187 30.8348 43.3187H29.3029V70.7466H30.8348C31.8415 70.7466 32.1917 70.1153 32.1917 68.548V45.5173Z" fill="#CCCCCC"/>
<path d="M38.2973 39.5963H46.7447V43.2099H41.9082V54.7035H45.3222V58.317H41.9082V70.8119H46.7447V74.4254H38.2973V39.5963Z" fill="#CCCCCC"/>
<path d="M54.995 74.4037H51.2747L47.7076 39.5963H51.4279L53.1567 64.5644L55.3014 39.5963H58.6715L54.995 74.4037Z" fill="#CCCCCC"/>
<path d="M60.291 39.5963H68.7383V43.2099H63.9019V54.7035H67.3158V58.317H63.9019V70.8119H68.7383V74.4254H60.291V39.5963Z" fill="#CCCCCC"/>
<path d="M70.7954 74.4037V39.5963H74.4282V70.7902H79.0457V74.4037H70.7954Z" fill="#CCCCCC"/>
<path d="M85.3484 74.8173C82.5034 74.8173 80.1399 72.4228 80.1399 68.8528V45.1255C80.1399 41.6208 82.5034 39.161 85.3484 39.161C88.1933 39.161 90.5568 41.6208 90.5568 45.1255V68.8528C90.5568 72.401 88.1933 74.8173 85.3484 74.8173ZM86.8803 44.6683C86.8803 43.7323 86.3113 42.9922 85.3484 42.9922C84.3417 42.9922 83.8165 43.7323 83.8165 44.6683V69.3317C83.8165 70.333 84.3417 71.0078 85.3484 71.0078C86.2894 71.0078 86.8803 70.333 86.8803 69.3317V44.6683Z" fill="#CCCCCC"/>
<path d="M98.3257 59.8625H96.7063V74.3819H93.0735V39.5746H98.3257C100.383 39.5746 103.009 40.6194 103.009 45.0602V54.3552C103.009 58.7959 100.383 59.8407 98.3257 59.8407V59.8625ZM99.3762 44.9731C99.3762 43.7758 98.9604 43.2969 98.2819 43.2969H96.7063V56.4014H98.2819C98.9604 56.4014 99.3762 55.8789 99.3762 54.7252V44.9513V44.9731Z" fill="#CCCCCC"/>
<path d="M110.296 59.8625H108.677V74.3819H105.044V39.5746H110.296C112.353 39.5746 114.98 40.6194 114.98 45.0602V54.3552C114.98 58.7959 112.353 59.8407 110.296 59.8407V59.8625ZM111.347 44.9731C111.347 43.7758 110.931 43.2969 110.253 43.2969H108.677V56.4014H110.253C110.931 56.4014 111.347 55.8789 111.347 54.7252V44.9513V44.9731Z" fill="#CCCCCC"/>
<path d="M117.015 39.5963H125.462V43.2099H120.626V54.7035H124.04V58.317H120.626V70.8119H125.462V74.4254H117.015V39.5963Z" fill="#CCCCCC"/>
<path d="M138.877 74.4037V47.3893L138.396 54.0722L136.142 74.4037H133.297L131.152 54.0722L130.671 47.3893V74.4037H127.519V39.5963H132.509L134.391 57.1415L135.026 64.4121L135.66 57.1415L137.498 39.5963H142.335V74.4037H138.877Z" fill="#CCCCCC"/>
<path d="M145.07 39.5963H153.518V43.2099H148.681V54.7035H152.095V58.317H148.681V70.8119H153.518V74.4254H145.07V39.5963Z" fill="#CCCCCC"/>
<path d="M163.606 74.4037L159.558 56.8585L158.66 51.8518V74.4254H155.465V39.6181H159.142L162.512 57.1633L163.3 62.2352V39.6181H166.495V74.4254H163.606V74.4037Z" fill="#CCCCCC"/>
<path d="M174.942 43.3622V74.4037H171.31V43.3622H168.049V39.5963H178.028V43.3622H174.92H174.942Z" fill="#CCCCCC"/>
<path d="M5.20844 114C2.36349 114 0 111.606 0 108.036V84.3082C0 80.8035 2.36349 78.3437 5.20844 78.3437C8.05339 78.3437 9.97919 80.8035 9.97919 84.3082V90.9475H6.87164V83.9381C6.87164 82.9368 6.34642 82.1531 5.29598 82.1531C4.20177 82.1531 3.67655 82.9368 3.67655 83.9381V108.384C3.67655 109.385 4.20177 110.169 5.29598 110.169C6.39019 110.169 6.87164 109.385 6.87164 108.384V101.331H9.97919V108.014C9.97919 111.562 8.14092 113.978 5.20844 113.978V114Z" fill="#CCCCCC"/>
<path d="M17.0697 114C14.2247 114 12.0363 111.605 12.0363 108.036V78.7791H15.6691V108.34C15.6691 109.538 16.1943 110.169 17.1353 110.169C18.142 110.169 18.6672 109.538 18.6672 108.34V78.7791H22.1249V108.036C22.1249 111.584 19.9146 114 17.0916 114H17.0697Z" fill="#CCCCCC"/>
<path d="M24.6854 113.586V78.7791H28.3182V109.973H32.9357V113.586H24.6854Z" fill="#CCCCCC"/>
<path d="M38.7569 82.545V113.586H35.1241V82.545H31.8634V78.7791H41.8426V82.545H38.735H38.7569Z" fill="#CCCCCC"/>
<path d="M48.4297 114C45.5848 114 43.3964 111.605 43.3964 108.036V78.7791H47.0291V108.34C47.0291 109.538 47.5544 110.169 48.4954 110.169C49.5021 110.169 50.0273 109.538 50.0273 108.34V78.7791H53.485V108.036C53.485 111.584 51.2747 114 48.4516 114H48.4297Z" fill="#CCCCCC"/>
<path d="M64.2958 113.695C63.0921 113.695 62.5013 111.605 62.5013 109.407V100.221C62.5013 99.1759 61.9761 98.4357 61.1445 98.4357H59.722V113.586H56.0454V78.7791H61.3414C63.3985 78.7791 65.959 79.8239 65.959 84.2647V92.776C65.959 94.6045 65.2806 95.9106 63.9019 96.7378C65.2587 97.565 66.0465 98.8276 66.0465 100.7V109.102C66.0465 110.669 66.1997 111.758 66.6155 112.65V113.652H64.252L64.2958 113.695ZM62.3481 84.1776C62.3481 82.9803 61.9323 82.5014 61.2539 82.5014H59.722V94.8875H61.0788C61.8666 94.8875 62.3481 94.3216 62.3481 93.059V84.1776Z" fill="#CCCCCC"/>
<path d="M68.5413 78.7791H76.9886V82.3926H72.1522V93.8862H75.5661V97.4997H72.1522V109.995H76.9886V113.608H68.5413V78.7791Z" fill="#CCCCCC"/>
<path d="M79.0457 113.586V78.7791H82.6785V109.973H87.2961V113.586H79.0457Z" fill="#CCCCCC"/>
<path d="M93.8613 78.7791H102.309V82.3926H97.4722V93.8862H100.886V97.4997H97.4722V109.995H102.309V113.608H93.8613V78.7791Z" fill="#CCCCCC"/>
<path d="M110.187 82.545V113.586H106.554V82.545H103.293V78.7791H113.273V82.545H110.165H110.187Z" fill="#CCCCCC"/>
<path d="M125.725 113.586L125.353 106.904H122.42L121.851 113.586H118.59L122.114 78.7791H126.053L129.511 113.586H125.725ZM124.105 87.421L122.748 103.138H125.112L124.105 87.421Z" fill="#CCCCCC"/>
<path d="M139.38 113.695C138.177 113.695 137.586 111.605 137.586 109.407V100.221C137.586 99.1759 137.061 98.4357 136.229 98.4357H134.807V113.586H131.13V78.7791H136.426C138.483 78.7791 141.044 79.8239 141.044 84.2647V92.776C141.044 94.6045 140.365 95.9106 138.987 96.7378C140.343 97.565 141.131 98.8276 141.131 100.7V109.102C141.131 110.669 141.284 111.758 141.7 112.65V113.652H139.337L139.38 113.695ZM137.433 84.1776C137.433 82.9803 137.017 82.5014 136.339 82.5014H134.807V94.8875H136.163C136.951 94.8875 137.433 94.3216 137.433 93.059V84.1776Z" fill="#CCCCCC"/>
<path d="M149.36 82.545V113.586H145.727V82.545H142.466V78.7791H152.445V82.545H149.338H149.36Z" fill="#CCCCCC"/>
<path d="M154.152 113.586V78.7791H157.829V113.586H154.152Z" fill="#CCCCCC"/>
<path d="M165.073 114C161.812 114 159.864 111.693 159.864 107.84V103.399H163.169V108.253C163.169 109.668 163.738 110.648 164.897 110.648C166.167 110.648 166.736 109.755 166.736 108.253C166.736 104.749 165.729 101.766 163.891 97.7609C162.271 94.2563 159.995 88.8795 159.995 85.266C159.995 81.2389 161.615 78.3655 165.357 78.3655C168.246 78.3655 170.084 80.5641 170.084 84.5259V89.3802H166.823V84.2647C166.823 82.6973 166.298 81.9572 165.357 81.9572C164.307 81.9572 163.563 82.632 163.563 84.0905C163.563 88.4224 164.613 90.4686 166.604 95.0181C168.552 99.35 170.237 103.638 170.237 107.295C170.237 112.737 167.13 113.978 165.029 113.978L165.073 114Z" fill="#CCCCCC"/>
<path d="M178.203 82.545V113.586H174.57V82.545H171.31V78.7791H181.289V82.545H178.181H178.203Z" fill="#CCCCCC"/>
<path d="M182.974 113.586V78.7791H186.65V113.586H182.974Z" fill="#CCCCCC"/>
<path d="M199.059 114C198.227 114 197.592 113.695 197.177 113.173C196.345 113.739 195.382 114 194.332 114C191.487 114 189.123 111.606 189.123 108.036V84.3082C189.123 80.8035 191.487 78.3437 194.332 78.3437C197.177 78.3437 199.54 80.8035 199.54 84.3082V108.036C199.54 109.08 199.321 110.016 199.015 110.691C199.278 110.996 199.912 111.214 200.744 111.214V113.565C200.328 113.826 199.803 113.978 199.059 113.978V114ZM195.864 83.8511C195.864 82.915 195.295 82.1749 194.332 82.1749C193.325 82.1749 192.8 82.915 192.8 83.8511V108.514C192.8 109.516 193.325 110.191 194.332 110.191C194.704 110.191 195.01 110.147 195.273 109.886L194.222 108.884L195.842 107.056V83.8511H195.864Z" fill="#CCCCCC"/>
<path d="M206.937 114C204.092 114 201.904 111.605 201.904 108.036V78.7791H205.536V108.34C205.536 109.538 206.062 110.169 207.003 110.169C208.009 110.169 208.535 109.538 208.535 108.34V78.7791H211.992V108.036C211.992 111.584 209.782 114 206.959 114H206.937Z" fill="#CCCCCC"/>
<path d="M214.553 78.7791H223V82.3926H218.164V93.8862H221.578V97.4997H218.164V109.995H223V113.608H214.553V78.7791Z" fill="#CCCCCC"/>
</svg>
