<svg width="18" height="19" viewBox="0 0 18 19" fill="none" xmlns="http://www.w3.org/2000/svg">
<path d="M14.3333 10.2222V15.5556C14.3333 16.0271 14.146 16.4792 13.8126 16.8126C13.4792 17.146 13.0271 17.3333 12.5556 17.3333H2.77778C2.30628 17.3333 1.8541 17.146 1.5207 16.8126C1.1873 16.4792 1 16.0271 1 15.5556V5.77778C1 5.30628 1.1873 4.8541 1.5207 4.5207C1.8541 4.1873 2.30628 4 2.77778 4H8.11111" stroke="black" stroke-width="1.5" stroke-linecap="square" stroke-linejoin="round"/>
<path d="M11.6665 1H16.9998V6.33333" stroke="black" stroke-linecap="square" stroke-linejoin="round"/>
<path d="M17.7499 1C17.7499 0.585786 17.4142 0.25 16.9999 0.25H10.2499C9.83573 0.25 9.49995 0.585786 9.49995 1C9.49995 1.41421 9.83573 1.75 10.2499 1.75H16.2499V7.75C16.2499 8.16421 16.5857 8.5 16.9999 8.5C17.4142 8.5 17.7499 8.16421 17.7499 7.75V1ZM7.7525 11.3081L17.5303 1.53033L16.4696 0.46967L6.69184 10.2474L7.7525 11.3081Z" fill="black"/>
</svg>
